<mxfile host="app.diagrams.net" modified="2023-08-29T11:47:30.226Z" agent="Mozilla/5.0 (Windows NT 10.0; Win64; x64) AppleWebKit/537.36 (KHTML, like Gecko) Chrome/116.0.0.0 Safari/537.36" etag="p5ccap-1N4B-n_CKLEQ9" version="21.6.9" type="device">
  <diagram name="Página-1" id="MPTAq5mmowd-xnmzln34">
    <mxGraphModel dx="600" dy="328" grid="1" gridSize="10" guides="1" tooltips="1" connect="1" arrows="1" fold="1" page="1" pageScale="1" pageWidth="827" pageHeight="1169" math="0" shadow="0">
      <root>
        <mxCell id="0" />
        <mxCell id="1" parent="0" />
        <mxCell id="xdMg7J4vs6wQq1NSMJvJ-1" value="Arara" style="swimlane;fontStyle=1;align=center;verticalAlign=top;childLayout=stackLayout;horizontal=1;startSize=26;horizontalStack=0;resizeParent=1;resizeParentMax=0;resizeLast=0;collapsible=1;marginBottom=0;whiteSpace=wrap;html=1;fillColor=#dae8fc;strokeColor=#6c8ebf;" vertex="1" parent="1">
          <mxGeometry x="330" y="170" width="280" height="250" as="geometry" />
        </mxCell>
        <mxCell id="xdMg7J4vs6wQq1NSMJvJ-2" value="+Cor: string&lt;br&gt;+Alimentação: string&lt;br&gt;+Tamanho: decimal&lt;br&gt;+Espécie: string&lt;br&gt;+Peso: decimal&lt;br&gt;+Som: string&lt;br&gt;+Habitat: string" style="text;strokeColor=#9673a6;fillColor=#e1d5e7;align=left;verticalAlign=top;spacingLeft=4;spacingRight=4;overflow=hidden;rotatable=0;points=[[0,0.5],[1,0.5]];portConstraint=eastwest;whiteSpace=wrap;html=1;" vertex="1" parent="xdMg7J4vs6wQq1NSMJvJ-1">
          <mxGeometry y="26" width="280" height="114" as="geometry" />
        </mxCell>
        <mxCell id="xdMg7J4vs6wQq1NSMJvJ-3" value="" style="line;strokeWidth=1;fillColor=none;align=left;verticalAlign=middle;spacingTop=-1;spacingLeft=3;spacingRight=3;rotatable=0;labelPosition=right;points=[];portConstraint=eastwest;strokeColor=inherit;" vertex="1" parent="xdMg7J4vs6wQq1NSMJvJ-1">
          <mxGeometry y="140" width="280" height="8" as="geometry" />
        </mxCell>
        <mxCell id="xdMg7J4vs6wQq1NSMJvJ-4" value="+Voar(): void&lt;br&gt;+Comer():void&lt;br&gt;+Tagarelar(): void" style="text;strokeColor=#b85450;fillColor=#f8cecc;align=left;verticalAlign=top;spacingLeft=4;spacingRight=4;overflow=hidden;rotatable=0;points=[[0,0.5],[1,0.5]];portConstraint=eastwest;whiteSpace=wrap;html=1;" vertex="1" parent="xdMg7J4vs6wQq1NSMJvJ-1">
          <mxGeometry y="148" width="280" height="102" as="geometry" />
        </mxCell>
      </root>
    </mxGraphModel>
  </diagram>
</mxfile>
